PathFileType	4	(x/y/z)	S04_PSF_T10.trc
DataRate	CameraRate	NumFrames	NumMarkers	Units	OrigDataRate	OrigDataStartFrame	OrigNumFrames
240	240	8	51	mm	240	107	425
Frame#	Time	Sternum			R.Acromium			L.Acromium			Top.Head			R.ASIS			L.ASIS			R.PSIS			L.PSIS			R.Great.Tro			L.Great.Tro			R.Iliac.Crest			L.Iliac.Crest			V.Sacral			R.Thigh.Upper.Post			R.Thigh.Lower.Ant			R.Thigh.Lower.Post			R.Thigh.Upper.Ant			R.Knee.Lat			R.Knee.Med			R.Shank.Upper.Post			R.Shank.Lower.Ant			R.Shank.Lower.Post			R.Shank.Upper.Ant			R.Ankle.Lat			R.Ankle.Med			R.Heel.Upper			R.Heel.Med			R.Heel.Lat			R.Toe.Lat			R.Toe.Med			R.Toe.Tip			L.Thigh.Upper.Post			L.Thigh.Lower.Ant			L.Thigh.Lower.Post			L.Thigh.Upper.Ant			L.Knee.Lat			L.Knee.Med			L.Shank.Upper.Post			L.Shank.Lower.Ant			L.Shank.Lower.Post			L.Shank.Upper.Ant			L.Ankle.Lat			L.Ankle.Med			L.Heel.Upper			L.Heel.Med			L.Heel.Lat			L.Toe.Lat			L.Toe.Med			L.Toe.Tip			Cervical.Spine			Back			
		X1	Y1	Z1	X2	Y2	Z2	X3	Y3	Z3	X4	Y4	Z4	X5	Y5	Z5	X6	Y6	Z6	X7	Y7	Z7	X8	Y8	Z8	X9	Y9	Z9	X10	Y10	Z10	X11	Y11	Z11	X12	Y12	Z12	X13	Y13	Z13	X14	Y14	Z14	X15	Y15	Z15	X16	Y16	Z16	X17	Y17	Z17	X18	Y18	Z18	X19	Y19	Z19	X20	Y20	Z20	X21	Y21	Z21	X22	Y22	Z22	X23	Y23	Z23	X24	Y24	Z24	X25	Y25	Z25	X26	Y26	Z26	X27	Y27	Z27	X28	Y28	Z28	X29	Y29	Z29	X30	Y30	Z30	X31	Y31	Z31	X32	Y32	Z32	X33	Y33	Z33	X34	Y34	Z34	X35	Y35	Z35	X36	Y36	Z36	X37	Y37	Z37	X38	Y38	Z38	X39	Y39	Z39	X40	Y40	Z40	X41	Y41	Z41	X42	Y42	Z42	X43	Y43	Z43	X44	Y44	Z44	X45	Y45	Z45	X46	Y46	Z46	X47	Y47	Z47	X48	Y48	Z48	X49	Y49	Z49	X50	Y50	Z50	X51	Y51	Z51	

107	0.44167	-864.7	1276.1	266.28	-997.54	1506.3	436.03	-990.33	1489.4	86.77	-957.62	1829.6	246.83	-893.04	994.67	397.57	-900.34	1007.3	148.07	-1107.6	1028.9	311.02	-1102.7	1036.4	230.58	-978.99	916.52	470.34	-1029.8	928.92	92.931	-979.74	1088.6	445.01	-1001	1089.7	109.29	-1127.9	991.88	270.46	-878.59	670.84	460.67	-779.57	622.88	421.02	-844.78	587.05	444.54	-812.28	727.38	442.68	-799.82	533.28	432.55	-817.64	521.51	305.06	-840.69	302.81	431.5	-759.33	236.74	398.62	-828.29	234.02	418.7	-775.02	305.28	419.59	-794.31	119.96	403.2	-768.66	138.71	317.11	-847.06	76.726	341.29	-827.07	51.079	311.6	-838.72	44.424	374.82	-677.77	67.383	440.68	-630.68	81.677	328.25	-579.38	111.25	381.71	-1084.6	706.71	112.79	-1022.1	597.41	120.41	-1090.7	618.57	125.03	-1020.4	686.11	103.03	-1075.1	513.75	134.5	-1070.3	505.6	257.54	-1186.7	347.89	142.85	-1129.2	253.09	145.02	-1189.3	270.97	151.57	-1126.1	329.48	135.5	-1172.2	105.19	172.11	-1164.5	114.38	263.6	-1247.1	75.863	217.49	-1240.9	49.553	249.81	-1244.6	49.784	188.5	-1061.7	42.854	146.06	-1028.2	43.429	262.21	-971.25	53.249	211.65	-1041.7	1551.1	262.67	-1127.9	1296.2	244.33
108	0.44583	-859.17	1275	266.5	-992.01	1505.2	436.32	-984.61	1488.5	87.04	-952.08	1828.7	247.27	-887.45	993.62	397.51	-895.12	1006.3	148.1	-1102	1028	311.24	-1097.1	1035.5	230.84	-973.42	915.55	470.48	-1024.9	928.19	93.032	-974.18	1087.5	445.14	-995.76	1088.8	109.38	-1122.3	990.96	270.71	-873.73	669.66	460.86	-774.68	621.68	421.41	-839.92	585.86	444.81	-807.4	726.18	442.96	-794.33	532.53	432.99	-812.38	520.22	305.46	-829.69	301.27	432.15	-746.75	237.3	399.1	-815.6	232.84	419.38	-764.15	305.42	420.07	-778.63	119.59	403.79	-753.64	138.87	317.58	-830.58	75.07	342.07	-810.06	49.849	312.35	-821.32	43.028	375.65	-660.68	69.887	440.85	-614.42	85.112	328.25	-563.65	116.06	381.48	-1081.2	706.6	112.97	-1019.4	596.94	120.58	-1087.7	618.52	125.12	-1017.1	685.64	103.2	-1073	513.53	134.54	-1068	505.33	257.57	-1185.6	348.15	143.09	-1128.3	253.14	145.08	-1188.4	271.34	151.68	-1124.9	329.51	135.56	-1172.1	105.34	172.28	-1164.2	114.54	263.74	-1247	75.999	217.67	-1240.8	49.647	249.95	-1244.6	49.965	188.65	-1061.6	42.855	146.11	-1028.1	43.275	262.27	-971.18	53.066	211.67	-1036.1	1550.1	262.95	-1122	1295.2	244.47
109	0.45	-853.62	1273.9	266.73	-986.47	1504.1	436.62	-978.88	1487.5	87.326	-946.53	1827.7	247.72	-881.84	992.54	397.45	-889.89	1005.2	148.14	-1096.5	1027.1	311.47	-1091.6	1034.5	231.1	-967.82	914.56	470.61	-1020.1	927.44	93.133	-968.61	1086.4	445.28	-990.48	1087.8	109.47	-1116.8	990.02	270.97	-868.89	668.43	461.08	-769.83	620.43	421.82	-835.11	584.62	445.11	-802.53	724.93	443.24	-788.9	531.73	433.46	-807.18	518.89	305.87	-818.8	299.82	432.79	-734.36	237.95	399.57	-803.06	231.78	420.03	-753.42	305.62	420.54	-763.17	119.4	404.35	-738.86	139.18	318.02	-814.3	73.606	342.81	-793.25	48.825	313.06	-804.12	41.843	376.44	-643.88	72.554	440.97	-598.48	88.7	328.23	-548.26	120.99	381.23	-1077.7	706.46	113.15	-1016.6	596.44	120.74	-1084.7	618.44	125.22	-1013.7	685.15	103.35	-1070.7	513.3	134.58	-1065.7	505.03	257.6	-1184.5	348.41	143.33	-1127.5	253.19	145.15	-1187.4	271.71	151.8	-1123.6	329.53	135.62	-1172	105.51	172.45	-1164	114.71	263.88	-1246.9	76.15	217.85	-1240.7	49.756	250.1	-1244.5	50.161	188.8	-1061.6	42.857	146.15	-1028.1	43.13	262.34	-971.11	52.878	211.69	-1030.4	1549.2	263.24	-1116.1	1294.2	244.62
110	0.45417	-848.06	1272.8	266.98	-980.91	1502.9	436.93	-973.15	1486.5	87.627	-940.97	1826.7	248.19	-876.21	991.44	397.4	-884.64	1004.1	148.18	-1090.9	1026.1	311.71	-1086.1	1033.6	231.37	-962.17	913.54	470.74	-1015.2	926.67	93.234	-963.01	1085.3	445.42	-985.19	1086.9	109.58	-1111.2	989.06	271.23	-864.06	667.17	461.32	-764.99	619.13	422.25	-830.31	583.34	445.44	-797.68	723.64	443.53	-783.51	530.89	433.96	-802.02	517.51	306.3	-808.04	298.46	433.42	-722.16	238.68	400.03	-790.69	230.83	420.66	-742.84	305.87	421	-747.95	119.36	404.88	-724.34	139.64	318.44	-798.25	72.324	343.52	-776.69	47.992	313.74	-787.16	40.856	377.2	-627.41	75.361	441.06	-582.87	92.421	328.18	-533.22	126.04	380.97	-1074.2	706.29	113.34	-1013.7	595.93	120.91	-1081.7	618.32	125.34	-1010.3	684.64	103.49	-1068.4	513.05	134.62	-1063.3	504.72	257.64	-1183.2	348.69	143.56	-1126.5	253.23	145.22	-1186.3	272.08	151.93	-1122.3	329.55	135.68	-1171.9	105.69	172.62	-1163.7	114.9	264.03	-1246.8	76.323	218.04	-1240.6	49.886	250.26	-1244.5	50.374	188.96	-1061.6	42.859	146.2	-1028	42.992	262.41	-971.03	52.685	211.71	-1024.8	1548.2	263.55	-1110.1	1293.2	244.79
111	0.45833	-842.47	1271.6	267.23	-975.34	1501.8	437.27	-967.41	1485.5	87.945	-935.4	1825.6	248.66	-870.54	990.32	397.35	-879.39	1003	148.22	-1085.3	1025.1	311.96	-1080.7	1032.6	231.63	-956.48	912.5	470.87	-1010.3	925.88	93.337	-957.4	1084.1	445.57	-979.87	1085.9	109.7	-1105.6	988.09	271.51	-859.24	665.89	461.59	-760.17	617.79	422.7	-825.53	582.04	445.79	-792.82	722.31	443.83	-778.15	530.02	434.49	-796.9	516.1	306.73	-797.41	297.18	434.03	-710.17	239.49	400.47	-778.49	229.99	421.26	-732.43	306.17	421.45	-733	119.47	405.36	-710.12	140.22	318.82	-782.46	71.213	344.18	-760.4	47.337	314.36	-770.47	40.051	377.91	-611.27	78.283	441.09	-567.61	96.248	328.11	-518.55	131.16	380.69	-1070.6	706.1	113.53	-1010.7	595.4	121.06	-1078.6	618.18	125.48	-1006.8	684.11	103.62	-1066	512.78	134.67	-1060.8	504.38	257.68	-1181.8	348.99	143.77	-1125.6	253.27	145.29	-1185.3	272.46	152.05	-1120.9	329.55	135.74	-1171.8	105.89	172.8	-1163.4	115.1	264.18	-1246.7	76.522	218.23	-1240.5	50.04	250.41	-1244.4	50.608	189.12	-1061.6	42.861	146.25	-1028	42.861	262.48	-970.94	52.484	211.73	-1019.1	1547.1	263.88	-1104.2	1292.1	244.97
112	0.4625	-836.87	1270.5	267.5	-969.76	1500.6	437.62	-961.66	1484.5	88.278	-929.83	1824.6	249.16	-864.86	989.19	397.3	-874.14	1001.8	148.26	-1079.7	1024.1	312.22	-1075.2	1031.6	231.91	-950.74	911.43	471	-1005.3	925.07	93.442	-951.76	1082.9	445.72	-974.54	1084.9	109.82	-1100	987.09	271.79	-854.4	664.59	461.89	-755.35	616.42	423.16	-820.73	580.7	446.16	-787.95	720.96	444.12	-772.8	529.12	435.03	-791.79	514.66	307.18	-786.93	295.99	434.63	-698.42	240.34	400.89	-766.5	229.24	421.83	-722.19	306.5	421.89	-718.36	119.71	405.81	-696.21	140.92	319.18	-766.96	70.257	344.8	-744.41	46.843	314.95	-754.09	39.413	378.57	-595.52	81.291	441.09	-552.73	100.15	328.02	-504.28	136.32	380.41	-1066.9	705.88	113.73	-1007.7	594.86	121.21	-1075.4	618.01	125.64	-1003.2	683.57	103.74	-1063.4	512.5	134.72	-1058.2	504.03	257.72	-1180.4	349.31	143.96	-1124.5	253.3	145.36	-1184.1	272.85	152.18	-1119.5	329.56	135.81	-1171.7	106.1	172.97	-1163.1	115.32	264.32	-1246.6	76.752	218.42	-1240.4	50.224	250.57	-1244.3	50.866	189.29	-1061.6	42.862	146.3	-1027.9	42.735	262.55	-970.86	52.276	211.75	-1013.5	1546.1	264.22	-1098.3	1291.1	245.17
113	0.46667	-831.26	1269.3	267.78	-964.16	1499.4	437.98	-955.91	1483.5	88.627	-924.25	1823.6	249.66	-859.15	988.06	397.25	-868.88	1000.7	148.3	-1074.1	1023	312.5	-1069.7	1030.6	232.2	-944.96	910.35	471.13	-1000.4	924.25	93.552	-946.1	1081.7	445.88	-969.2	1083.9	109.96	-1094.5	986.09	272.09	-849.53	663.28	462.21	-750.5	615.04	423.61	-815.92	579.36	446.56	-783.05	719.6	444.42	-767.46	528.2	435.59	-786.69	513.21	307.64	-776.61	294.87	435.21	-686.9	241.23	401.3	-754.73	228.59	422.36	-712.13	306.85	422.31	-704.05	120.06	406.21	-682.62	141.7	319.5	-751.79	69.443	345.38	-728.76	46.493	315.48	-738.05	38.924	379.18	-580.17	84.359	441.04	-538.26	104.1	327.91	-490.43	141.48	380.12	-1063.2	705.64	113.93	-1004.6	594.3	121.35	-1072.2	617.8	125.81	-999.63	683.01	103.86	-1060.8	512.21	134.77	-1055.5	503.65	257.77	-1178.8	349.66	144.13	-1123.4	253.33	145.43	-1182.9	273.24	152.31	-1118	329.55	135.88	-1171.5	106.33	173.14	-1162.8	115.56	264.47	-1246.5	77.019	218.61	-1240.3	50.441	250.73	-1244.3	51.152	189.46	-1061.6	42.862	146.35	-1027.8	42.613	262.63	-970.76	52.06	211.77	-1007.8	1545	264.59	-1092.4	1290	245.37
114	0.47083	-825.62	1268.2	268.08	-958.56	1498.2	438.37	-950.14	1482.5	88.993	-918.67	1822.5	250.18	-853.41	986.91	397.21	-863.61	999.53	148.33	-1068.5	1022	312.79	-1064.2	1029.6	232.49	-939.12	909.25	471.25	-995.4	923.41	93.665	-940.42	1080.5	446.04	-963.83	1082.9	110.11	-1088.9	985.07	272.4	-844.62	661.97	462.56	-745.62	613.65	424.07	-811.06	578.02	446.97	-778.11	718.23	444.7	-762.12	527.27	436.15	-781.58	511.76	308.09	-766.46	293.83	435.77	-675.63	242.15	401.69	-743.2	228.02	422.86	-702.25	307.22	422.72	-690.09	120.49	406.57	-669.39	142.55	319.79	-736.96	68.753	345.9	-713.48	46.266	315.96	-722.39	38.563	379.74	-565.25	87.455	440.96	-524.21	108.06	327.77	-477.01	146.61	379.81	-1059.4	705.37	114.15	-1001.4	593.73	121.48	-1068.8	617.57	126	-995.94	682.44	103.96	-1058.1	511.89	134.83	-1052.6	503.25	257.82	-1177.1	350.04	144.27	-1122.3	253.36	145.5	-1181.7	273.65	152.44	-1116.4	329.55	135.95	-1171.3	106.58	173.3	-1162.4	115.82	264.61	-1246.4	77.326	218.8	-1240.2	50.697	250.89	-1244.2	51.471	189.62	-1061.5	42.86	146.4	-1027.7	42.496	262.7	-970.66	51.836	211.79	-1002.1	1544	264.96	-1086.5	1288.9	245.59
